<svg id="Capa_1" enable-background="new 0 0 510 510" height="512" viewBox="0 0 510 510" width="512" xmlns="http://www.w3.org/2000/svg"><g><path d="m240 135h30v-22.5h22.5v-30h-22.5v-22.5h-30v22.5h-22.5v30h22.5z"/><path d="m435 285v-90h45v-90h-120v-105h-210v105h-120v90h45v90h-75v225h510v-225zm45 30v105h-45v-105zm-30-180v30c-13.864 0-79.049 0-90 0v-30zm-270-105h150v135h-150c0-50.516 0-85.42 0-135zm-120 135v-30h90v30c-10.562 0-76.13 0-90 0zm15 150v105h-45v-105zm-45 165v-30h45v30zm180 0v-105h30v105zm60 0v-105h30v105zm135 0h-75v-135h-150v135h-75c0-10.916 0-274.36 0-285h300zm30 0v-30h45v30z"/><path d="m150 225h30v30h-30z"/><path d="m210 225h30v30h-30z"/><path d="m270 225h30v30h-30z"/><path d="m330 225h30v30h-30z"/><path d="m150 285h30v30h-30z"/><path d="m210 285h30v30h-30z"/><path d="m270 285h30v30h-30z"/><path d="m330 285h30v30h-30z"/></g></svg>